<svg width="177" height="116" viewBox="0 0 177 116" fill="none" xmlns="http://www.w3.org/2000/svg">
<path fill-rule="evenodd" clip-rule="evenodd" d="M102 81.0606C102 91.5205 110.836 100 121.737 100H161.211C169.931 100 177 93.2164 177 84.8485C177 76.4805 169.931 69.697 161.211 69.697L161.195 69.697C161.205 69.4457 161.211 69.1931 161.211 68.9394C161.211 58.4795 152.374 50 141.474 50C133.062 50 125.88 55.0494 123.038 62.1617C122.608 62.1349 122.174 62.1212 121.737 62.1212C110.836 62.1212 102 70.6007 102 81.0606Z" fill="#ADADAD"/>
<circle cx="95" cy="50" r="50" fill="#D9D9D9"/>
<path fill-rule="evenodd" clip-rule="evenodd" d="M0 91C0 104.807 11.1929 116 25 116H75C86.0457 116 95 107.046 95 96C95 84.9543 86.0457 76 75 76L74.9804 76C74.9934 75.6683 75 75.3349 75 75C75 61.1929 63.8071 50 50 50C39.3454 50 30.2475 56.6652 26.6484 66.0535C26.1035 66.018 25.5539 66 25 66C11.1929 66 0 77.1929 0 91Z" fill="#ADADAD"/>
</svg>
